<svg width="94" height="45" fill="none" xmlns="http://www.w3.org/2000/svg">
  <path d="M47 21v-4-2l2-1h2l1 2v1h-2v-1-1h-1v6h1v-2h2v1l-1 1-2 1-2-1zM54 21v-5-2h4l1 2v3l-1 2-2 1-2-1zm3 0v-5-1h-1l-1 1v4l1 1a1 1 0 001 0zM61 14h2l1 6 1-6h2v8h-1v-6l-1 6h-1l-2-6v6h-1v-8zM69 14h3c2 0 2 1 2 2 0 2 0 2-2 2h-1v4h-2v-8zm3 3h1v-1-1h-2v2h1zM77 14h2l2 8h-2v-2h-2v2h-2l2-8zm1 5v-3l-1 3h1zM82 14h1l3 5v-5h1v8h-1l-2-5v5h-2v-8zM90 19l-2-5h2l1 3 1-3h2l-2 5v3h-2v-3zM50 26h-1v3h-1v-3h-1 3zM54 29l-1-1h-2v1h-1l2-3h1l1 3zm-2-1h1v-2h-1v2zM57 29h1v-2h1v2a3 3 0 01-1 0h-1-1l-1-1v-1l1-1a3 3 0 012 0 2 2 0 011 0h-1a2 2 0 00-1 0h-1v3a1 1 0 001 0zM63 29h2-3v-3h1v3zM67 29h-1v-3h1v3zM69 26l2 2v-2h1v3h-1l-2-3v3h-1v-3h1zM76 26h-2v1h2v1h-2v1h2-3v-3h3zM15 3l26 6v22l-26-6V3zm-1-2v25l29 7V8L14 1z" fill="#AFB1B8"/>
  <path d="M29 45L0 38V12l29 8v25z" fill="#AFB1B8"/>
  <path d="M14 2l25 7-10 9-26-6L14 2zm0-1L0 12l29 8L43 8 14 1zM31 43l12-10-12-3v13z" fill="#AFB1B8"/>
</svg>
