<svg width="45" height="42" fill="none" xmlns="http://www.w3.org/2000/svg">
  <path d="M7 41h1l-1 1H6 5v-1H4a2 2 0 010-2h1v-1a3 3 0 012 0l1 1H7a2 2 0 00-1 0H5v2h2zM14 40v1h-1v1h-2l-1-1v-2l1-1h2v1a2 2 0 011 1zm-1 0v-1a1 1 0 00-1 0h-2v2a1 1 0 001 0h2v-1zM18 41l2-3v4-3l-2 2-2-2v3-4h1l1 3zM23 40v2-4h2v2l-1 1-1-1zm0 0h2v-1h-2v1zM31 42h-1v-1h-2l-1 1 1-4h1l2 4zm-3-1h1v-2l-1 2zM33 38l2 3v-3h1v4h-1l-2-3v3-4zM40 40v2h-1v-2l-1-2h1v2a2 2 0 011 0l1-2-1 2zM18 32c4-1 7-3 9-6 3-3 4-7 4-10l-4-4c0 4 0 8-2 11-1 4-4 7-7 9z" fill="#AFB1B8"/>
  <path d="M16 32c4-2 7-5 8-9 2-4 2-8 1-12l-6-5a22 22 0 01-3 26zM36 20c-1 4-3 7-7 10l-3 2 7-4 5-6-2-2z" fill="#AFB1B8"/>
  <path d="M35 19l-3-3c0 4-2 7-4 10s-4 5-8 6h3l8-5 4-8zM17 4l-4-3C9 2 6 4 4 7c-2 2-3 6-3 9 0 4 1 7 4 10 2 3 6 5 10 6 4-4 6-9 6-14S20 8 17 4zM44 19c0-5-2-9-5-12a20 20 0 00-20-4l24 22 1-6z" fill="#AFB1B8"/>
</svg>
