<svg width="40" height="52" fill="none" xmlns="http://www.w3.org/2000/svg">
  <path fill-rule="evenodd" clip-rule="evenodd" d="M17 3h-1a24 24 0 00-1 0C11 3 7 4 4 6v22h1a38 38 0 0111-2v3h-2a32 32 0 00-13 4V4a30 30 0 0115-4 29 29 0 015 1v3l-3-1h-1zm5 3h2a31 31 0 0015-4v28a30 30 0 01-20 3V5a23 23 0 003 1zm14 0h-1l-2 1a34 34 0 01-11 1h-1v23h3a27 27 0 0012-3V6z" fill="#AFB1B8"/>
  <path d="M3 42a1 1 0 00-1 0H1a2 2 0 00-1 1v5h1v1h1a2 2 0 001-2H2v1a1 1 0 01-1 0v-4-1a1 1 0 011 0v1h1v-1a2 2 0 000-1zM9 42a2 2 0 00-2 0H6v6l1 1a2 2 0 001 0l1-1a2 2 0 000-1v-4-1zm-1 5a1 1 0 010 1 1 1 0 01-1 0 1 1 0 010-1v-4a1 1 0 011 0v4zM16 49v-7h-1l-1 3-1-3h-1v7h1v-4l1 2 1-2v4h1zM22 42h-3v7h1v-3h2v-1a5 5 0 000-2v-1zm-1 2v1h-1v-2h1v1zM27 42h-1l-2 7h1l1-2h1v2h1l-1-7zm-1 4v-2l1 2h-1zM33 46l-2-4v7-4h1l1 4h1v-7h-1v4zM39 42l-1 3-1-3h-1l2 4v3h1v-3l1-4h-1zM0 51v1h1v-2H0v1zM4 50l-1 2h2l-1-2zm0 1zM8 51v1l-1-1h2l-1-1-1 1v1a1 1 0 001 0h1v-1H8zM12 50v2h1-1v-2zM15 50v2-2zM19 51l-1-1v2-1l1 1v-2 1zM22 51v-1h-1v2h2-1v-1zM29 51h-1v-1 2-1h1v1-2 1zM32 51h1-1 1v-1h-1v2h1-1v-1zM36 51v-1h-1v2-1h1v1h1-1v-1zm0 0h-1 1zM39 51h1-1 1v-1h-1v2h1-1v-1z" fill="#AFB1B8"/>
</svg>
